<svg width="200" height="64" viewBox="0 0 200 64" fill="none" xmlns="http://www.w3.org/2000/svg">
<rect width="200" height="64" fill="black"/>
<path opacity="0.6" d="M67.888 15.6H65.188V24H67.888C70.348 24 72.148 22.236 72.148 19.8C72.148 17.364 70.36 15.6 67.888 15.6ZM67.864 23.22H66.028V16.392H67.864C69.856 16.392 71.284 17.832 71.284 19.8C71.284 21.78 69.856 23.22 67.864 23.22ZM76.5936 24.144C78.5496 24.144 80.0136 22.704 80.0136 20.76C80.0136 18.828 78.5496 17.388 76.5936 17.388C74.6496 17.388 73.1856 18.816 73.1856 20.76C73.1856 22.704 74.6496 24.144 76.5936 24.144ZM76.5936 23.352C75.1056 23.352 74.0136 22.26 74.0136 20.76C74.0136 19.272 75.1056 18.18 76.5936 18.18C78.0936 18.18 79.1856 19.272 79.1856 20.76C79.1856 22.26 78.0936 23.352 76.5936 23.352ZM89.4732 17.52L87.6852 22.668L85.6092 17.664H85.2972L83.2332 22.632L81.5052 17.52H80.6412L82.8492 24H83.5092L85.4532 19.236L87.4092 24H88.0692L90.3012 17.52H89.4732ZM94.6528 17.388C93.6208 17.388 92.7448 17.88 92.2648 18.672L92.0968 17.52H91.5088V24H92.3248V20.388C92.3248 19.14 93.2728 18.132 94.4488 18.132C95.6608 18.132 96.3448 18.936 96.3448 20.328V24H97.1608V20.136C97.1608 18.528 96.2008 17.388 94.6528 17.388ZM99.0763 24H99.8923V15.216H99.0763V24ZM104.801 24.144C106.757 24.144 108.221 22.704 108.221 20.76C108.221 18.828 106.757 17.388 104.801 17.388C102.857 17.388 101.393 18.816 101.393 20.76C101.393 22.704 102.857 24.144 104.801 24.144ZM104.801 23.352C103.313 23.352 102.221 22.26 102.221 20.76C102.221 19.272 103.313 18.18 104.801 18.18C106.301 18.18 107.393 19.272 107.393 20.76C107.393 22.26 106.301 23.352 104.801 23.352ZM115.315 17.52L115.207 18.696C114.619 17.892 113.671 17.388 112.531 17.388C110.623 17.388 109.195 18.828 109.195 20.76C109.195 22.692 110.623 24.144 112.531 24.144C113.671 24.144 114.607 23.64 115.207 22.848L115.291 24H115.975V17.52H115.315ZM112.591 23.352C111.115 23.352 110.023 22.236 110.023 20.76C110.023 19.296 111.115 18.18 112.591 18.18C114.067 18.18 115.147 19.272 115.147 20.76C115.147 22.26 114.067 23.352 112.591 23.352ZM123.369 15.216V18.552C122.781 17.832 121.869 17.388 120.801 17.388C118.869 17.388 117.477 18.828 117.477 20.76C117.477 22.692 118.869 24.144 120.801 24.144C121.905 24.144 122.841 23.664 123.429 22.908L123.549 24H124.185V15.216H123.369ZM120.861 23.352C119.397 23.352 118.305 22.248 118.305 20.76C118.305 19.284 119.397 18.18 120.861 18.18C122.337 18.18 123.429 19.284 123.429 20.76C123.429 22.236 122.337 23.352 120.861 23.352ZM132.2 24.144C134.156 24.144 135.62 22.704 135.62 20.76C135.62 18.828 134.156 17.388 132.2 17.388C130.256 17.388 128.792 18.816 128.792 20.76C128.792 22.704 130.256 24.144 132.2 24.144ZM132.2 23.352C130.712 23.352 129.62 22.26 129.62 20.76C129.62 19.272 130.712 18.18 132.2 18.18C133.7 18.18 134.792 19.272 134.792 20.76C134.792 22.26 133.7 23.352 132.2 23.352ZM140.266 17.388C139.234 17.388 138.358 17.88 137.878 18.672L137.71 17.52H137.122V24H137.938V20.388C137.938 19.14 138.886 18.132 140.062 18.132C141.274 18.132 141.958 18.936 141.958 20.328V24H142.774V20.136C142.774 18.528 141.814 17.388 140.266 17.388ZM150.114 23.244C149.178 23.244 148.674 22.728 148.674 21.804V18.264H150.774V17.52H148.674V16.26H148.53L146.742 18.108V18.264H147.858V21.84C147.858 23.184 148.674 24 150.006 24H150.822V23.244H150.114ZM155.246 17.388C154.25 17.388 153.41 17.844 152.918 18.576V15.216H152.102V24H152.918V20.388C152.918 19.14 153.866 18.132 155.042 18.132C156.254 18.132 156.938 18.936 156.938 20.328V24H157.754V20.136C157.754 18.456 156.794 17.388 155.246 17.388ZM165.669 20.772C165.669 18.888 164.361 17.388 162.429 17.388C160.557 17.388 159.141 18.84 159.141 20.76C159.141 22.692 160.557 24.144 162.429 24.144C163.809 24.144 164.913 23.388 165.489 22.068H164.625C164.193 22.872 163.401 23.34 162.429 23.34C161.085 23.34 160.089 22.416 159.957 21.072H165.657C165.657 20.976 165.669 20.868 165.669 20.772ZM162.429 18.168C163.701 18.168 164.673 19.008 164.853 20.316H159.969C160.161 19.032 161.121 18.168 162.429 18.168Z" fill="white"/>
<path d="M73.072 47H75.072L70.432 35.8H68.704L64.208 47H66.16L67.104 44.568H72.112L73.072 47ZM69.6 38.2L71.472 42.92H67.744L69.6 38.2ZM81.0409 38.152C79.7929 38.152 78.7049 38.632 77.9209 39.432L77.5849 38.36H76.4009V50.104H78.1769V46.184C78.9289 46.84 79.9209 47.224 81.0409 47.224C83.6169 47.224 85.5209 45.272 85.5209 42.68C85.5209 40.088 83.6169 38.152 81.0409 38.152ZM80.8969 45.528C79.2649 45.528 78.0649 44.312 78.0649 42.68C78.0649 41.064 79.2649 39.848 80.8969 39.848C82.5289 39.848 83.7129 41.064 83.7129 42.68C83.7129 44.312 82.5289 45.528 80.8969 45.528ZM91.9121 38.152C90.6641 38.152 89.5761 38.632 88.7921 39.432L88.4561 38.36H87.2721V50.104H89.0481V46.184C89.8001 46.84 90.7921 47.224 91.9121 47.224C94.4881 47.224 96.3921 45.272 96.3921 42.68C96.3921 40.088 94.4881 38.152 91.9121 38.152ZM91.7681 45.528C90.1361 45.528 88.9361 44.312 88.9361 42.68C88.9361 41.064 90.1361 39.848 91.7681 39.848C93.4001 39.848 94.5841 41.064 94.5841 42.68C94.5841 44.312 93.4001 45.528 91.7681 45.528ZM105.663 47.176C107.935 47.176 109.743 45.992 109.743 43.752C109.743 41.336 107.695 40.84 105.951 40.408C104.623 40.088 103.471 39.816 103.471 38.776C103.471 37.864 104.383 37.352 105.503 37.352C106.671 37.352 107.599 37.96 107.599 39.08H109.423C109.423 36.968 107.983 35.64 105.551 35.64C103.167 35.64 101.631 36.84 101.631 38.856C101.631 41.16 103.599 41.64 105.311 42.056C106.655 42.376 107.855 42.648 107.855 43.768C107.855 44.792 106.847 45.432 105.647 45.432C104.335 45.432 103.311 44.728 103.311 43.48H101.439C101.439 45.768 103.151 47.176 105.663 47.176ZM115.367 45.4C114.327 45.4 113.751 44.824 113.751 43.784V39.896H116.311V38.36H113.735V36.344H113.431L110.423 39.544V39.896H111.975V43.928C111.975 45.832 113.143 47 115.031 47H116.359V45.4H115.367ZM121.819 47.224C124.459 47.224 126.427 45.288 126.427 42.68C126.427 40.088 124.459 38.152 121.819 38.152C119.163 38.152 117.195 40.072 117.195 42.68C117.195 45.288 119.163 47.224 121.819 47.224ZM121.819 45.528C120.171 45.528 119.003 44.344 119.003 42.68C119.003 41.032 120.171 39.848 121.819 39.848C123.451 39.848 124.619 41.032 124.619 42.68C124.619 44.344 123.451 45.528 121.819 45.528ZM132.319 38.312C131.135 38.312 130.287 38.728 129.663 39.544L129.375 38.36H128.175V47H129.951V42.408C129.951 40.84 130.671 39.992 132.143 39.992H133.087V38.312H132.319ZM142.286 42.712C142.286 40.2 140.526 38.152 137.87 38.152C135.342 38.152 133.438 40.104 133.438 42.68C133.438 45.272 135.342 47.224 137.87 47.224C139.806 47.224 141.39 46.104 142.078 44.28H140.206C139.742 45.08 138.91 45.56 137.87 45.56C136.462 45.56 135.454 44.696 135.23 43.288H142.238C142.27 43.096 142.286 42.904 142.286 42.712ZM137.87 39.768C139.198 39.768 140.174 40.536 140.494 41.848H135.278C135.566 40.568 136.542 39.768 137.87 39.768Z" fill="white"/>
<path d="M44.9176 28.8316C44.3596 29.7647 44.0593 30.8167 44.0445 31.8896C44.0458 33.097 44.4215 34.2775 45.1249 35.2836C45.8284 36.2897 46.8283 37.0769 48 37.5471C47.5387 38.967 46.8438 40.3088 45.941 41.5228C44.73 43.2432 43.4607 44.9237 41.4437 44.9559C39.4849 44.9983 38.8266 43.8604 36.5807 43.8604C34.3117 43.8604 33.61 44.9237 31.7312 44.9983C29.8103 45.0652 28.3433 43.1622 27.0876 41.4585C24.5788 37.9778 22.6241 31.6504 25.2439 27.3443C25.8489 26.3128 26.7249 25.4477 27.7868 24.8333C28.8487 24.2188 30.0601 23.8758 31.3031 23.8379C33.2239 23.7993 35.0093 25.0697 36.1905 25.0697C37.3501 25.0697 39.5554 23.5511 41.8311 23.7774C42.8972 23.8094 43.9408 24.0769 44.879 24.5585C45.8172 25.0402 46.6243 25.7228 47.236 26.5522C46.2731 27.1143 45.4756 27.8984 44.9176 28.8316Z" fill="white"/>
<path d="M41.8541 17C41.985 18.6254 41.4431 20.2351 40.3438 21.4874C39.8173 22.1089 39.1491 22.6088 38.3896 22.9495C37.63 23.2903 36.7989 23.463 35.9589 23.4547C35.9056 22.6733 36.015 21.8895 36.2809 21.1482C36.5468 20.4069 36.964 19.7226 37.5086 19.1344C38.6227 17.9295 40.1744 17.1674 41.8541 17Z" fill="white"/>
</svg>
