<svg width="200" height="64" viewBox="0 0 200 64" fill="none" xmlns="http://www.w3.org/2000/svg">
<rect width="200" height="64" fill="black"/>
<path d="M24.4636 19.07C24.1376 19.4611 23.9731 19.9618 24.0036 20.47V42.59C23.9731 43.0982 24.1376 43.5989 24.4636 43.99L24.5336 44.06L36.9236 31.68V31.39L24.5336 19L24.4636 19.07Z" fill="url(#paint0_linear_270_97)"/>
<path d="M41.0236 36.1459L36.9236 32.0159V31.7259L41.0236 27.5859L41.1136 27.6359L46.0236 30.4259C47.4236 31.2159 47.4236 32.5159 46.0236 33.3159L41.1336 36.0959L41.0236 36.1459Z" fill="url(#paint1_linear_270_97)"/>
<path d="M41.1435 36.0857L36.9235 31.8657L24.4635 44.3257C24.7489 44.5766 25.1129 44.7199 25.4927 44.7308C25.8725 44.7418 26.2442 44.6197 26.5435 44.3857L41.1535 36.0857" fill="url(#paint2_linear_270_97)"/>
<path d="M41.1436 27.6458L26.5336 19.3458C26.2343 19.1118 25.8626 18.9897 25.4828 19.0007C25.103 19.0116 24.739 19.1549 24.4536 19.4058L36.9236 31.8658L41.1436 27.6458Z" fill="url(#paint3_linear_270_97)"/>
<path opacity="0.6" d="M68.512 20.908V21.712H72.112C71.836 23.26 70.54 24.316 68.836 24.316C66.844 24.316 65.464 22.876 65.464 20.812C65.464 18.772 66.88 17.308 68.836 17.308C70.36 17.308 71.656 18.208 72.016 19.504H72.88C72.508 17.74 70.828 16.48 68.824 16.48C66.4 16.48 64.6 18.316 64.6 20.812C64.6 23.308 66.376 25.132 68.836 25.132C71.236 25.132 72.952 23.392 73.012 20.908H68.512ZM80.5339 21.772C80.5339 19.888 79.2259 18.388 77.2939 18.388C75.4219 18.388 74.0059 19.84 74.0059 21.76C74.0059 23.692 75.4219 25.144 77.2939 25.144C78.6739 25.144 79.7779 24.388 80.3539 23.068H79.4899C79.0579 23.872 78.2659 24.34 77.2939 24.34C75.9499 24.34 74.9539 23.416 74.8219 22.072H80.5219C80.5219 21.976 80.5339 21.868 80.5339 21.772ZM77.2939 19.168C78.5659 19.168 79.5379 20.008 79.7179 21.316H74.8339C75.0259 20.032 75.9859 19.168 77.2939 19.168ZM84.4819 24.244C83.5459 24.244 83.0419 23.728 83.0419 22.804V19.264H85.1419V18.52H83.0419V17.26H82.8979L81.1099 19.108V19.264H82.2259V22.84C82.2259 24.184 83.0419 25 84.3739 25H85.1899V24.244H84.4819ZM89.5007 17.296H90.4367V16.288H89.5007V17.296ZM89.5607 25H90.3767V18.52H89.5607V25ZM95.5495 18.388C94.5175 18.388 93.6415 18.88 93.1615 19.672L92.9935 18.52H92.4055V25H93.2215V21.388C93.2215 20.14 94.1695 19.132 95.3455 19.132C96.5575 19.132 97.2415 19.936 97.2415 21.328V25H98.0575V21.136C98.0575 19.528 97.0975 18.388 95.5495 18.388ZM105.944 25.144C107.9 25.144 109.364 23.704 109.364 21.76C109.364 19.828 107.9 18.388 105.944 18.388C104 18.388 102.536 19.816 102.536 21.76C102.536 23.704 104 25.144 105.944 25.144ZM105.944 24.352C104.456 24.352 103.364 23.26 103.364 21.76C103.364 20.272 104.456 19.18 105.944 19.18C107.444 19.18 108.536 20.272 108.536 21.76C108.536 23.26 107.444 24.352 105.944 24.352ZM114.01 18.388C112.978 18.388 112.102 18.88 111.622 19.672L111.454 18.52H110.866V25H111.682V21.388C111.682 20.14 112.63 19.132 113.806 19.132C115.018 19.132 115.702 19.936 115.702 21.328V25H116.518V21.136C116.518 19.528 115.558 18.388 114.01 18.388Z" fill="white"/>
<path d="M70.096 41.32V42.904H74.096C73.68 44.424 72.224 45.448 70.432 45.448C68.128 45.448 66.576 43.784 66.576 41.416C66.576 39.048 68.176 37.384 70.432 37.384C72.128 37.384 73.552 38.328 74.032 39.768H75.92C75.424 37.32 73.136 35.608 70.4 35.608C67.12 35.608 64.704 38.072 64.704 41.416C64.704 44.76 67.136 47.224 70.432 47.224C73.728 47.224 76.048 44.76 76.096 41.32H70.096ZM81.8536 47.224C84.4936 47.224 86.4616 45.288 86.4616 42.68C86.4616 40.088 84.4936 38.152 81.8536 38.152C79.1976 38.152 77.2296 40.072 77.2296 42.68C77.2296 45.288 79.1976 47.224 81.8536 47.224ZM81.8536 45.528C80.2056 45.528 79.0376 44.344 79.0376 42.68C79.0376 41.032 80.2056 39.848 81.8536 39.848C83.4856 39.848 84.6536 41.032 84.6536 42.68C84.6536 44.344 83.4856 45.528 81.8536 45.528ZM92.1936 47.224C94.8336 47.224 96.8016 45.288 96.8016 42.68C96.8016 40.088 94.8336 38.152 92.1936 38.152C89.5376 38.152 87.5696 40.072 87.5696 42.68C87.5696 45.288 89.5376 47.224 92.1936 47.224ZM92.1936 45.528C90.5456 45.528 89.3776 44.344 89.3776 42.68C89.3776 41.032 90.5456 39.848 92.1936 39.848C93.8256 39.848 94.9936 41.032 94.9936 42.68C94.9936 44.344 93.8256 45.528 92.1936 45.528ZM105.606 38.36L105.334 39.48C104.55 38.664 103.446 38.152 102.182 38.152C99.7656 38.152 97.9096 40.04 97.9096 42.456C97.9096 44.888 99.7656 46.76 102.182 46.76C103.302 46.76 104.294 46.376 105.046 45.72V46.12C105.046 47.752 103.942 48.744 102.454 48.744C101.366 48.744 100.342 48.216 100.006 47.272H98.2456C98.6776 49.16 100.246 50.312 102.47 50.312C105.142 50.312 106.774 48.632 106.774 45.88V38.36H105.606ZM102.374 45.112C100.838 45.112 99.7176 43.976 99.7176 42.456C99.7176 40.952 100.838 39.816 102.374 39.816C103.926 39.816 105.03 40.936 105.03 42.456C105.03 43.992 103.91 45.112 102.374 45.112ZM109.155 47H110.931V35.272H109.155V47ZM121.5 42.712C121.5 40.2 119.74 38.152 117.084 38.152C114.556 38.152 112.652 40.104 112.652 42.68C112.652 45.272 114.556 47.224 117.084 47.224C119.02 47.224 120.604 46.104 121.292 44.28H119.42C118.956 45.08 118.124 45.56 117.084 45.56C115.676 45.56 114.668 44.696 114.444 43.288H121.452C121.484 43.096 121.5 42.904 121.5 42.712ZM117.084 39.768C118.412 39.768 119.388 40.536 119.708 41.848H114.492C114.78 40.568 115.756 39.768 117.084 39.768ZM131.737 38.152C130.489 38.152 129.401 38.632 128.617 39.432L128.281 38.36H127.097V50.104H128.873V46.184C129.625 46.84 130.617 47.224 131.737 47.224C134.313 47.224 136.217 45.272 136.217 42.68C136.217 40.088 134.313 38.152 131.737 38.152ZM131.593 45.528C129.961 45.528 128.761 44.312 128.761 42.68C128.761 41.064 129.961 39.848 131.593 39.848C133.225 39.848 134.409 41.064 134.409 42.68C134.409 44.312 133.225 45.528 131.593 45.528ZM137.968 47H139.744V35.272H137.968V47ZM149.337 38.36L149.129 39.448C148.345 38.632 147.241 38.152 145.961 38.152C143.385 38.152 141.465 40.088 141.465 42.68C141.465 45.272 143.385 47.224 145.961 47.224C147.225 47.224 148.313 46.744 149.097 45.96L149.273 47H150.697V38.36H149.337ZM146.105 45.512C144.473 45.512 143.273 44.296 143.273 42.68C143.273 41.064 144.473 39.848 146.105 39.848C147.737 39.848 148.921 41.048 148.921 42.68C148.921 44.312 147.737 45.512 146.105 45.512ZM159.246 38.36L156.67 44.392L153.918 38.36H151.998L155.758 46.376L155.566 46.792C154.926 48.168 154.574 48.504 153.438 48.504H152.686V50.104H153.566C155.326 50.104 156.19 49.336 157.166 47.16L161.134 38.36H159.246Z" fill="white"/>
<defs>
<linearGradient id="paint0_linear_270_97" x1="31.8878" y1="20.24" x2="21.2665" y2="30.8613" gradientUnits="userSpaceOnUse">
<stop stop-color="#00A0FF"/>
<stop offset="0.01" stop-color="#00A1FF"/>
<stop offset="0.26" stop-color="#00BEFF"/>
<stop offset="0.51" stop-color="#00D2FF"/>
<stop offset="0.76" stop-color="#00DFFF"/>
<stop offset="1" stop-color="#00E3FF"/>
</linearGradient>
<linearGradient id="paint1_linear_270_97" x1="47.8536" y1="31.8659" x2="23.6636" y2="31.8659" gradientUnits="userSpaceOnUse">
<stop stop-color="#FFE000"/>
<stop offset="0.41" stop-color="#FFBD00"/>
<stop offset="0.78" stop-color="#FFA500"/>
<stop offset="1" stop-color="#FF9C00"/>
</linearGradient>
<linearGradient id="paint2_linear_270_97" x1="38.8535" y1="35.8427" x2="20.7091" y2="53.9792" gradientUnits="userSpaceOnUse">
<stop stop-color="#FF3A44"/>
<stop offset="1" stop-color="#C31162"/>
</linearGradient>
<linearGradient id="paint3_linear_270_97" x1="21.3236" y1="17.4777" x2="29.4223" y2="25.5765" gradientUnits="userSpaceOnUse">
<stop stop-color="#32A071"/>
<stop offset="0.07" stop-color="#2DA771"/>
<stop offset="0.48" stop-color="#15CF74"/>
<stop offset="0.8" stop-color="#06E775"/>
<stop offset="1" stop-color="#00F076"/>
</linearGradient>
</defs>
</svg>
