<svg width="22" height="24" viewBox="0 0 22 24" fill="none" xmlns="http://www.w3.org/2000/svg">
<path d="M18.8855 5.13232C18.7219 5.04854 18.5627 4.9567 18.4084 4.85714C17.9601 4.56354 17.549 4.21763 17.1841 3.82684C16.2699 2.7912 15.9285 1.74064 15.8036 1.00577H15.8079C15.7034 0.39463 15.7465 0 15.7541 0H11.5921V15.9377C11.5921 16.151 11.5921 16.3633 11.5835 16.5723C11.5835 16.5979 11.5803 16.6214 11.5792 16.6502C11.5792 16.6608 11.5792 16.6736 11.576 16.6854V16.695C11.5323 17.2667 11.3474 17.819 11.0375 18.3033C10.7277 18.7876 10.3025 19.189 9.79921 19.4723C9.27418 19.7682 8.68034 19.9233 8.07629 19.9224C6.138 19.9224 4.56583 18.3567 4.56583 16.423C4.56583 14.4882 6.138 12.9225 8.07629 12.9225C8.44349 12.9225 8.80853 12.9801 9.15742 13.0932L9.1628 8.89517C8.10322 8.75977 7.02681 8.8434 6.0015 9.14079C4.9762 9.43818 4.02427 9.94287 3.2058 10.623C2.48848 11.2401 1.88539 11.9764 1.42366 12.7988C1.24813 13.0985 0.58481 14.3048 0.505125 16.2609C0.454514 17.3701 0.791561 18.522 0.952008 18.9966V19.0073C1.05215 19.2867 1.44412 20.2424 2.0816 21.0476C2.59567 21.694 3.20306 22.2618 3.8842 22.7328V22.7221L3.8939 22.7328C5.90756 24.0873 8.14197 23.9988 8.14197 23.9988C8.52855 23.9828 9.82398 23.9988 11.2949 23.3087C12.9263 22.543 13.8545 21.4028 13.8545 21.4028C14.448 20.7214 14.9199 19.9448 15.2501 19.1065C15.627 18.1252 15.7519 16.9499 15.7519 16.4806V8.02378C15.8025 8.05365 16.4755 8.49414 16.4755 8.49414C16.4755 8.49414 17.4447 9.10955 18.9555 9.50951C20.0387 9.79428 21.5 9.85508 21.5 9.85508V5.76266C20.9885 5.81812 19.9494 5.65814 18.8844 5.13339L18.8855 5.13232Z" fill="#F9F9F9"/>
</svg>
