<svg width="29" height="20" viewBox="0 0 29 20" fill="none" xmlns="http://www.w3.org/2000/svg">
<path d="M26.5 0H2.5C1.96957 0 1.46086 0.210714 1.08579 0.585786C0.710714 0.960859 0.5 1.46957 0.5 2V18C0.5 18.5304 0.710714 19.0391 1.08579 19.4142C1.46086 19.7893 1.96957 20 2.5 20H26.5C27.0304 20 27.5391 19.7893 27.9142 19.4142C28.2893 19.0391 28.5 18.5304 28.5 18V2C28.5 1.46957 28.2893 0.960859 27.9142 0.585786C27.5391 0.210714 27.0304 0 26.5 0ZM24.3 2L14.5 8.78L4.7 2H24.3ZM2.5 18V2.91L13.93 10.82C14.0974 10.9361 14.2963 10.9984 14.5 10.9984C14.7037 10.9984 14.9026 10.9361 15.07 10.82L26.5 2.91V18H2.5Z" fill="white"/>
</svg>
