<svg width="25" height="20" viewBox="0 0 25 20" fill="none" xmlns="http://www.w3.org/2000/svg">
<path d="M24.5 2.37236C23.6174 2.77326 22.6693 3.04414 21.6726 3.16658C22.701 2.53575 23.4704 1.5429 23.8373 0.373289C22.871 0.961624 21.8135 1.37575 20.7107 1.59766C19.9691 0.78596 18.9868 0.247955 17.9164 0.0671694C16.8459 -0.113617 15.7472 0.0729309 14.7907 0.59785C13.8343 1.12277 13.0737 1.95669 12.627 2.97014C12.1803 3.98359 12.0725 5.11988 12.3203 6.20257C10.3624 6.1018 8.44711 5.58015 6.69863 4.67147C4.95016 3.76279 3.40761 2.48739 2.1711 0.928046C1.7483 1.67567 1.5052 2.54248 1.5052 3.46563C1.50473 4.29667 1.70437 5.11499 2.08641 5.84798C2.46846 6.58096 3.02109 7.20594 3.69528 7.66748C2.9134 7.64198 2.14877 7.42541 1.46503 7.03579V7.1008C1.46495 8.26638 1.85827 9.39609 2.57823 10.2982C3.2982 11.2004 4.30048 11.8194 5.415 12.0503C4.68968 12.2515 3.92923 12.2811 3.19109 12.137C3.50555 13.1399 4.11807 14.0169 4.94291 14.6452C5.76776 15.2735 6.76363 15.6217 7.79111 15.641C6.0469 17.0446 3.89282 17.806 1.67537 17.8026C1.28257 17.8027 0.89011 17.7792 0.5 17.7322C2.75083 19.2157 5.37097 20.003 8.0469 20C17.1053 20 22.0573 12.3092 22.0573 5.63915C22.0573 5.42245 22.052 5.20358 22.0425 4.98687C23.0057 4.27281 23.8372 3.38858 24.4979 2.37562L24.5 2.37236Z" fill="#F9F9F9"/>
</svg>
