<svg width="29" height="20" viewBox="0 0 29 20" fill="none" xmlns="http://www.w3.org/2000/svg">
<path d="M27.9137 3.138C27.7552 2.53242 27.4464 1.98415 27.0202 1.55149C26.5819 1.10552 26.0447 0.786505 25.4594 0.624561C23.2687 0.00619463 14.4918 0.00619477 14.4918 0.00619477C10.8329 -0.0383868 7.17482 0.157694 3.53831 0.59333C2.95295 0.767239 2.41679 1.09338 1.97752 1.54274C1.54591 1.98747 1.23329 2.53588 1.06998 3.13675C0.677671 5.40003 0.487062 7.6981 0.50072 9.99999C0.486722 12.2998 0.676863 14.5971 1.06998 16.8632C1.22979 17.4616 1.54125 18.0075 1.97402 18.4485C2.4068 18.8895 2.94572 19.208 3.53831 19.3767C5.75818 19.9938 14.4918 19.9938 14.4918 19.9938C18.1555 20.0384 21.8182 19.8424 25.4594 19.4067C26.0447 19.2447 26.5819 18.9257 27.0202 18.4797C27.4462 18.0472 27.7547 17.4988 27.9125 16.8932C28.3151 14.6308 28.5108 12.3318 28.497 10.0287C28.5272 7.71592 28.3318 5.40605 27.9137 3.13675V3.138ZM11.7015 14.2773V5.7239L19.0039 10.0012L11.7015 14.2773Z" fill="white"/>
</svg>
